<svg width="512" height="512" viewBox="0 0 512 512" xmlns="http://www.w3.org/2000/svg">
  <defs>
    <linearGradient id="bg" x1="64" y1="64" x2="448" y2="448" gradientUnits="userSpaceOnUse">
      <stop offset="0" stop-color="#0ea5e9" />
      <stop offset="1" stop-color="#2563eb" />
    </linearGradient>
    <linearGradient id="line" x1="150" y1="180" x2="360" y2="320" gradientUnits="userSpaceOnUse">
      <stop offset="0" stop-color="#1d4ed8" />
      <stop offset="1" stop-color="#0f172a" />
    </linearGradient>
    <filter id="shadow" x="-20%" y="-20%" width="140%" height="140%">
      <feDropShadow dx="0" dy="10" stdDeviation="10" flood-color="#0f172a" flood-opacity="0.25" />
    </filter>
  </defs>

  <rect x="32" y="32" width="448" height="448" rx="108" fill="url(#bg)" />

  <g filter="url(#shadow)">
    <rect x="106" y="118" width="300" height="248" rx="52" fill="#ffffff" />
    <path d="M228 366L182 420C170 433 149 424 149 406V366H228Z" fill="#ffffff" />
  </g>

  <rect x="154" y="180" width="204" height="24" rx="12" fill="url(#line)" />
  <rect x="154" y="230" width="172" height="24" rx="12" fill="url(#line)" opacity="0.92" />
  <rect x="154" y="280" width="136" height="24" rx="12" fill="url(#line)" opacity="0.84" />

  <path
    d="M382 132L394 160L424 172L394 184L382 212L370 184L340 172L370 160L382 132Z"
    fill="#f8fafc"
    opacity="0.96"
  />
</svg>
